<svg id="visual" viewBox="0 0 900 600" width="900" height="600" xmlns="http://www.w3.org/2000/svg" xmlns:xlink="http://www.w3.org/1999/xlink" version="1.1"><rect x="0" y="0" width="900" height="600" fill="#5d8aa8"></rect><path d="M0 322L100 322L100 289L200 289L200 293L300 293L300 327L400 327L400 288L500 288L500 310L600 310L600 304L700 304L700 281L800 281L800 286L900 286L900 256L900 0L900 0L800 0L800 0L700 0L700 0L600 0L600 0L500 0L500 0L400 0L400 0L300 0L300 0L200 0L200 0L100 0L100 0L0 0Z" fill="#145951"></path><path d="M0 202L100 202L100 198L200 198L200 210L300 210L300 184L400 184L400 177L500 177L500 196L600 196L600 207L700 207L700 257L800 257L800 184L900 184L900 239L900 0L900 0L800 0L800 0L700 0L700 0L600 0L600 0L500 0L500 0L400 0L400 0L300 0L300 0L200 0L200 0L100 0L100 0L0 0Z" fill="#11675c"></path><path d="M0 109L100 109L100 164L200 164L200 131L300 131L300 119L400 119L400 165L500 165L500 104L600 104L600 139L700 139L700 134L800 134L800 100L900 100L900 111L900 0L900 0L800 0L800 0L700 0L700 0L600 0L600 0L500 0L500 0L400 0L400 0L300 0L300 0L200 0L200 0L100 0L100 0L0 0Z" fill="#0b7568"></path><path d="M0 107L100 107L100 93L200 93L200 109L300 109L300 98L400 98L400 60L500 60L500 63L600 63L600 49L700 49L700 89L800 89L800 41L900 41L900 66L900 0L900 0L800 0L800 0L700 0L700 0L600 0L600 0L500 0L500 0L400 0L400 0L300 0L300 0L200 0L200 0L100 0L100 0L0 0Z" fill="#038373"></path></svg>