<svg id="visual" viewBox="0 0 900 600" width="900" height="600" xmlns="http://www.w3.org/2000/svg" xmlns:xlink="http://www.w3.org/1999/xlink" version="1.1"><rect x="0" y="0" width="900" height="600" fill="#006dd6"></rect><path d="M347 0L346.3 14.3C345.7 28.7 344.3 57.3 354.3 85.8C364.3 114.3 385.7 142.7 407.3 171.2C429 199.7 451 228.3 462.7 257C474.3 285.7 475.7 314.3 478.2 343C480.7 371.7 484.3 400.3 494.3 428.8C504.3 457.3 520.7 485.7 543 514.2C565.3 542.7 593.7 571.3 607.8 585.7L622 600L0 600L0 585.7C0 571.3 0 542.7 0 514.2C0 485.7 0 457.3 0 428.8C0 400.3 0 371.7 0 343C0 314.3 0 285.7 0 257C0 228.3 0 199.7 0 171.2C0 142.7 0 114.3 0 85.8C0 57.3 0 28.7 0 14.3L0 0Z" fill="#00519e"></path><path d="M549 0L551.7 14.3C554.3 28.7 559.7 57.3 521.5 85.8C483.3 114.3 401.7 142.7 365.8 171.2C330 199.7 340 228.3 378.8 257C417.7 285.7 485.3 314.3 511.2 343C537 371.7 521 400.3 481.3 428.8C441.7 457.3 378.3 485.7 353.2 514.2C328 542.7 341 571.3 347.5 585.7L354 600L0 600L0 585.7C0 571.3 0 542.7 0 514.2C0 485.7 0 457.3 0 428.8C0 400.3 0 371.7 0 343C0 314.3 0 285.7 0 257C0 228.3 0 199.7 0 171.2C0 142.7 0 114.3 0 85.8C0 57.3 0 28.7 0 14.3L0 0Z" fill="#144791"></path><path d="M410 0L386.8 14.3C363.7 28.7 317.3 57.3 322.7 85.8C328 114.3 385 142.7 403.2 171.2C421.3 199.7 400.7 228.3 369.7 257C338.7 285.7 297.3 314.3 311.8 343C326.3 371.7 396.7 400.3 396.8 428.8C397 457.3 327 485.7 315.3 514.2C303.7 542.7 350.3 571.3 373.7 585.7L397 600L0 600L0 585.7C0 571.3 0 542.7 0 514.2C0 485.7 0 457.3 0 428.8C0 400.3 0 371.7 0 343C0 314.3 0 285.7 0 257C0 228.3 0 199.7 0 171.2C0 142.7 0 114.3 0 85.8C0 57.3 0 28.7 0 14.3L0 0Z" fill="#1d3d84"></path><path d="M267 0L284.8 14.3C302.7 28.7 338.3 57.3 346 85.8C353.7 114.3 333.3 142.7 327 171.2C320.7 199.7 328.3 228.3 312 257C295.7 285.7 255.3 314.3 258.7 343C262 371.7 309 400.3 311.8 428.8C314.7 457.3 273.3 485.7 254.5 514.2C235.7 542.7 239.3 571.3 241.2 585.7L243 600L0 600L0 585.7C0 571.3 0 542.7 0 514.2C0 485.7 0 457.3 0 428.8C0 400.3 0 371.7 0 343C0 314.3 0 285.7 0 257C0 228.3 0 199.7 0 171.2C0 142.7 0 114.3 0 85.8C0 57.3 0 28.7 0 14.3L0 0Z" fill="#213477"></path><path d="M200 0L201.5 14.3C203 28.7 206 57.3 201.8 85.8C197.7 114.3 186.3 142.7 190.5 171.2C194.7 199.7 214.3 228.3 213.2 257C212 285.7 190 314.3 188.3 343C186.7 371.7 205.3 400.3 221.2 428.8C237 457.3 250 485.7 254.3 514.2C258.7 542.7 254.3 571.3 252.2 585.7L250 600L0 600L0 585.7C0 571.3 0 542.7 0 514.2C0 485.7 0 457.3 0 428.8C0 400.3 0 371.7 0 343C0 314.3 0 285.7 0 257C0 228.3 0 199.7 0 171.2C0 142.7 0 114.3 0 85.8C0 57.3 0 28.7 0 14.3L0 0Z" fill="#232b6a"></path><path d="M221 0L219.5 14.3C218 28.7 215 57.3 211.3 85.8C207.7 114.3 203.3 142.7 198.8 171.2C194.3 199.7 189.7 228.3 189.5 257C189.3 285.7 193.7 314.3 197.5 343C201.3 371.7 204.7 400.3 211.2 428.8C217.7 457.3 227.3 485.7 218.5 514.2C209.7 542.7 182.3 571.3 168.7 585.7L155 600L0 600L0 585.7C0 571.3 0 542.7 0 514.2C0 485.7 0 457.3 0 428.8C0 400.3 0 371.7 0 343C0 314.3 0 285.7 0 257C0 228.3 0 199.7 0 171.2C0 142.7 0 114.3 0 85.8C0 57.3 0 28.7 0 14.3L0 0Z" fill="#22225d"></path><path d="M110 0L109.7 14.3C109.3 28.7 108.7 57.3 109.8 85.8C111 114.3 114 142.7 119.7 171.2C125.3 199.7 133.7 228.3 138 257C142.3 285.7 142.7 314.3 141.5 343C140.3 371.7 137.7 400.3 125.7 428.8C113.7 457.3 92.3 485.7 82.7 514.2C73 542.7 75 571.3 76 585.7L77 600L0 600L0 585.7C0 571.3 0 542.7 0 514.2C0 485.7 0 457.3 0 428.8C0 400.3 0 371.7 0 343C0 314.3 0 285.7 0 257C0 228.3 0 199.7 0 171.2C0 142.7 0 114.3 0 85.8C0 57.3 0 28.7 0 14.3L0 0Z" fill="#211951"></path></svg>