<svg id="visual" viewBox="0 0 900 600" width="900" height="600" xmlns="http://www.w3.org/2000/svg" xmlns:xlink="http://www.w3.org/1999/xlink" version="1.1"><path d="M0 49L75 109L150 139L225 91L300 91L375 73L450 121L525 157L600 97L675 103L750 67L825 151L900 85L900 0L825 0L750 0L675 0L600 0L525 0L450 0L375 0L300 0L225 0L150 0L75 0L0 0Z" fill="#63c5da"></path><path d="M0 229L75 271L150 241L225 289L300 295L375 199L450 277L525 277L600 331L675 253L750 241L825 265L900 223L900 83L825 149L750 65L675 101L600 95L525 155L450 119L375 71L300 89L225 89L150 137L75 107L0 47Z" fill="#49b5c1"></path><path d="M0 409L75 421L150 415L225 463L300 433L375 427L450 439L525 439L600 403L675 427L750 463L825 451L900 433L900 221L825 263L750 239L675 251L600 329L525 275L450 275L375 197L300 293L225 287L150 239L75 269L0 227Z" fill="#30a4a7"></path><path d="M0 499L75 541L150 517L225 547L300 505L375 547L450 529L525 517L600 517L675 523L750 523L825 535L900 511L900 431L825 449L750 461L675 425L600 401L525 437L450 437L375 425L300 431L225 461L150 413L75 419L0 407Z" fill="#19948d"></path><path d="M0 601L75 601L150 601L225 601L300 601L375 601L450 601L525 601L600 601L675 601L750 601L825 601L900 601L900 509L825 533L750 521L675 521L600 515L525 515L450 527L375 545L300 503L225 545L150 515L75 539L0 497Z" fill="#038373"></path></svg>