<svg id="visual" viewBox="0 0 960 540" width="960" height="540" xmlns="http://www.w3.org/2000/svg" xmlns:xlink="http://www.w3.org/1999/xlink" version="1.1"><rect x="0" y="0" width="960" height="540" fill="#263b49"></rect><path d="M0 348L107 348L107 350L213 350L213 390L320 390L320 349L427 349L427 388L533 388L533 382L640 382L640 378L747 378L747 343L853 343L853 353L960 353L960 349L960 541L960 541L853 541L853 541L747 541L747 541L640 541L640 541L533 541L533 541L427 541L427 541L320 541L320 541L213 541L213 541L107 541L107 541L0 541Z" fill="#92abd2"></path><path d="M0 395L107 395L107 408L213 408L213 428L320 428L320 409L427 409L427 425L533 425L533 402L640 402L640 413L747 413L747 417L853 417L853 384L960 384L960 422L960 541L960 541L853 541L853 541L747 541L747 541L640 541L640 541L533 541L533 541L427 541L427 541L320 541L320 541L213 541L213 541L107 541L107 541L0 541Z" fill="#63769d"></path><path d="M0 439L107 439L107 430L213 430L213 432L320 432L320 477L427 477L427 454L533 454L533 475L640 475L640 465L747 465L747 459L853 459L853 478L960 478L960 467L960 541L960 541L853 541L853 541L747 541L747 541L640 541L640 541L533 541L533 541L427 541L427 541L320 541L320 541L213 541L213 541L107 541L107 541L0 541Z" fill="#36456b"></path><path d="M0 507L107 507L107 502L213 502L213 504L320 504L320 477L427 477L427 487L533 487L533 483L640 483L640 517L747 517L747 486L853 486L853 474L960 474L960 480L960 541L960 541L853 541L853 541L747 541L747 541L640 541L640 541L533 541L533 541L427 541L427 541L320 541L320 541L213 541L213 541L107 541L107 541L0 541Z" fill="#091a3d"></path></svg>